<svg width="24" height="24" viewBox="0 0 24 24" fill="none" xmlns="http://www.w3.org/2000/svg">
<path d="M20.75 6H17C17 4.80653 16.5259 3.66193 15.682 2.81802C14.8381 1.97411 13.6935 1.5 12.5 1.5C11.3065 1.5 10.1619 1.97411 9.31802 2.81802C8.47411 3.66193 8 4.80653 8 6H4.25C3.85218 6 3.47064 6.15804 3.18934 6.43934C2.90804 6.72064 2.75 7.10218 2.75 7.5V18.75C2.75 19.1478 2.90804 19.5294 3.18934 19.8107C3.47064 20.092 3.85218 20.25 4.25 20.25H20.75C21.1478 20.25 21.5294 20.092 21.8107 19.8107C22.092 19.5294 22.25 19.1478 22.25 18.75V7.5C22.25 7.10218 22.092 6.72064 21.8107 6.43934C21.5294 6.15804 21.1478 6 20.75 6ZM12.5 3C13.2956 3 14.0587 3.31607 14.6213 3.87868C15.1839 4.44129 15.5 5.20435 15.5 6H9.5C9.5 5.20435 9.81607 4.44129 10.3787 3.87868C10.9413 3.31607 11.7044 3 12.5 3ZM20.75 18.75H4.25V7.5H8V9C8 9.19891 8.07902 9.38968 8.21967 9.53033C8.36032 9.67098 8.55109 9.75 8.75 9.75C8.94891 9.75 9.13968 9.67098 9.28033 9.53033C9.42098 9.38968 9.5 9.19891 9.5 9V7.5H15.5V9C15.5 9.19891 15.579 9.38968 15.7197 9.53033C15.8603 9.67098 16.0511 9.75 16.25 9.75C16.4489 9.75 16.6397 9.67098 16.7803 9.53033C16.921 9.38968 17 9.19891 17 9V7.5H20.75V18.75Z" fill="#7F57F1"/>
</svg>
