<svg width="20" height="20" viewBox="0 0 20 20" fill="none" xmlns="http://www.w3.org/2000/svg">
<path d="M8.7583 3.05416C8.91463 2.87957 9.10601 2.73991 9.31996 2.6443C9.53391 2.54869 9.76563 2.49927 9.99997 2.49927C10.2343 2.49927 10.466 2.54869 10.68 2.6443C10.8939 2.73991 11.0853 2.87957 11.2416 3.05416L11.825 3.70583C11.9917 3.89207 12.1982 4.03843 12.4291 4.13407C12.6601 4.22971 12.9096 4.27218 13.1591 4.25833L14.0341 4.20999C14.2682 4.19709 14.5023 4.2337 14.7212 4.31743C14.9402 4.40116 15.139 4.53012 15.3047 4.6959C15.4704 4.86168 15.5992 5.06055 15.6829 5.27952C15.7665 5.49848 15.803 5.73263 15.79 5.96666L15.7416 6.84083C15.7279 7.09027 15.7704 7.33961 15.8661 7.5704C15.9617 7.80119 16.108 8.00753 16.2941 8.17416L16.9458 8.75749C17.1205 8.91382 17.2603 9.10525 17.356 9.31928C17.4517 9.53331 17.5012 9.76513 17.5012 9.99958C17.5012 10.234 17.4517 10.4658 17.356 10.6799C17.2603 10.8939 17.1205 11.0853 16.9458 11.2417L16.2941 11.825C16.1079 11.9917 15.9615 12.1982 15.8659 12.4291C15.7703 12.6601 15.7278 12.9096 15.7416 13.1592L15.79 14.0342C15.8029 14.2682 15.7663 14.5023 15.6825 14.7213C15.5988 14.9402 15.4698 15.139 15.3041 15.3047C15.1383 15.4704 14.9394 15.5993 14.7204 15.6829C14.5015 15.7665 14.2673 15.803 14.0333 15.79L13.1591 15.7417C12.9097 15.7279 12.6604 15.7705 12.4296 15.8661C12.1988 15.9617 11.9924 16.108 11.8258 16.2942L11.2425 16.9458C11.0861 17.1206 10.8947 17.2603 10.6807 17.356C10.4666 17.4517 10.2348 17.5012 10.0004 17.5012C9.76594 17.5012 9.53412 17.4517 9.32009 17.356C9.10606 17.2603 8.91463 17.1206 8.7583 16.9458L8.17497 16.2942C8.00825 16.1079 7.80178 15.9616 7.57083 15.8659C7.33989 15.7703 7.09038 15.7278 6.8408 15.7417L5.9658 15.79C5.73177 15.8029 5.49764 15.7663 5.27871 15.6826C5.05978 15.5988 4.86098 15.4699 4.69528 15.3041C4.52957 15.1383 4.4007 14.9394 4.31708 14.7205C4.23346 14.5015 4.19696 14.2674 4.20997 14.0333L4.2583 13.1592C4.27203 12.9097 4.2295 12.6604 4.13387 12.4296C4.03823 12.1988 3.89194 11.9925 3.7058 11.8258L3.05414 11.2425C2.87941 11.0862 2.73964 10.8947 2.64394 10.6807C2.54824 10.4667 2.49878 10.2349 2.49878 10.0004C2.49878 9.76596 2.54824 9.53415 2.64394 9.32012C2.73964 9.10609 2.87941 8.91465 3.05414 8.75833L3.7058 8.17499C3.89205 8.00828 4.03841 7.8018 4.13405 7.57085C4.22969 7.33991 4.27215 7.09041 4.2583 6.84083L4.20997 5.96583C4.19719 5.73186 4.23389 5.49782 4.31767 5.27899C4.40145 5.06017 4.53044 4.86146 4.6962 4.69586C4.86197 4.53025 5.0608 4.40145 5.2797 4.31788C5.49861 4.2343 5.73268 4.19782 5.96664 4.21083L6.8408 4.25916C7.09025 4.27288 7.33959 4.23036 7.57038 4.13472C7.80117 4.03909 8.00751 3.89279 8.17414 3.70666L8.7583 3.05416Z" stroke="white" stroke-width="1.5"/>
<path d="M7.91663 7.91663H7.92496V7.92496H7.91663V7.91663ZM12.0833 12.0833H12.0916V12.0916H12.0833V12.0833Z" stroke="white" stroke-width="2.25" stroke-linejoin="round"/>
<path d="M12.5 7.5L7.5 12.5" stroke="white" stroke-width="1.5" stroke-linecap="round" stroke-linejoin="round"/>
</svg>
